<svg width="25" height="24" viewBox="0 0 25 24" fill="none" xmlns="http://www.w3.org/2000/svg">
<path d="M10.9523 17.2887C12.0042 17.2887 12.857 18.1195 12.857 19.1443C12.857 20.1692 12.0042 21 10.9523 21C9.90033 21 9.04754 20.1692 9.04754 19.1443C9.04754 18.1195 9.90033 17.2887 10.9523 17.2887ZM18.5712 17.2887C19.6232 17.2887 20.476 18.1195 20.476 19.1443C20.476 20.1692 19.6232 21 18.5712 21C17.5193 21 16.6665 20.1692 16.6665 19.1443C16.6665 18.1195 17.5193 17.2887 18.5712 17.2887ZM10.9523 18.4021C10.5315 18.4021 10.1904 18.7344 10.1904 19.1443C10.1904 19.5543 10.5315 19.8866 10.9523 19.8866C11.3731 19.8866 11.7142 19.5543 11.7142 19.1443C11.7142 18.7344 11.3731 18.4021 10.9523 18.4021ZM18.5712 18.4021C18.1505 18.4021 17.8094 18.7344 17.8094 19.1443C17.8094 19.5543 18.1505 19.8866 18.5712 19.8866C18.992 19.8866 19.3331 19.5543 19.3331 19.1443C19.3331 18.7344 18.992 18.4021 18.5712 18.4021ZM2.57142 3H5.23806C5.46835 3 5.67422 3.13438 5.76342 3.33768L5.78189 3.38579L9.46363 14.5052H20.4404L22.6443 7.82474H10.5713C10.2557 7.82474 9.99991 7.5755 9.99991 7.26804C9.99991 6.97867 10 7 9.99991 6.71134H10.5713H24.2266C24.1172 7.03125 24.0898 7.11328 23.9854 7.3915L23.9722 7.43839L21.2891 15.6162C21.1523 15.6162 21.1602 15.6186 20.9096 15.6162L20.8569 15.6186H9.04754C8.81726 15.6186 8.875 15.6186 8.64453 15.6186L8.50372 15.2328L4.82197 4.1134H2.57142C2.25583 4.1134 2 3.86416 2 3.5567C2 3.39562 2 3.00002 2 3.00002C2 3.00002 2.27832 3 2.5 3H2.57142Z" fill="#FF3F52"/>
</svg>
