<svg width="16" height="18" viewBox="0 0 16 18" fill="none" xmlns="http://www.w3.org/2000/svg">
<path fill-rule="evenodd" clip-rule="evenodd" d="M8.00075 0.966553C5.82806 0.966553 5.55537 0.976092 4.70206 1.01507C3.85037 1.05423 3.269 1.1896 2.76037 1.3883C2.23419 1.59347 1.78788 1.86792 1.34319 2.31465C0.898188 2.76112 0.624812 3.20936 0.419812 3.73755C0.2215 4.24848 0.0864999 4.83241 0.0481874 5.68733C0.00999987 6.5442 0 6.81821 0 8.99995C0 11.1817 0.00968754 11.4546 0.0483125 12.3116C0.0875 13.1668 0.222312 13.7505 0.42 14.2613C0.6245 14.7897 0.897813 15.2379 1.34269 15.6844C1.78719 16.1313 2.2335 16.4064 2.75937 16.6116C3.26837 16.8102 3.84987 16.9457 4.70138 16.9848C5.55475 17.0238 5.82725 17.0334 7.99975 17.0334C10.1726 17.0334 10.4444 17.0238 11.2977 16.9848C12.1494 16.9457 12.7314 16.8102 13.2404 16.6116C13.7665 16.4064 14.2121 16.1313 14.6566 15.6844C15.1016 15.2379 15.375 14.7897 15.58 14.2615C15.7767 13.7505 15.9117 13.1666 15.9517 12.3117C15.99 11.4548 16 11.1817 16 8.99995C16 6.81821 15.99 6.54439 15.9517 5.68752C15.9117 4.83228 15.7767 4.24848 15.58 3.73774C15.375 3.20936 15.1016 2.76112 14.6566 2.31465C14.2116 1.86779 13.7666 1.59328 13.2399 1.3883C12.7299 1.1896 12.1483 1.05423 11.2966 1.01507C10.4432 0.976092 10.1716 0.966553 7.99825 0.966553H8.00075ZM7.73394 2.41412H7.73412L8.00075 2.41419C10.1367 2.41419 10.3899 2.4219 11.2334 2.46038C12.0134 2.49621 12.4368 2.62707 12.7188 2.73702C13.0921 2.88263 13.3583 3.05673 13.6381 3.33789C13.9181 3.61906 14.0915 3.88686 14.2368 4.26173C14.3463 4.54459 14.4768 4.96967 14.5123 5.75292C14.5506 6.59981 14.559 6.85417 14.559 8.99813C14.559 11.142 14.5506 11.3964 14.5123 12.2433C14.4766 13.0265 14.3463 13.4516 14.2368 13.7345C14.0918 14.1093 13.9181 14.3763 13.6381 14.6573C13.3581 14.9385 13.0923 15.1126 12.7188 15.2582C12.4371 15.3686 12.0134 15.4992 11.2334 15.5349C10.3901 15.5735 10.1367 15.5818 8.00075 15.5818C5.86456 15.5818 5.61137 15.5735 4.76806 15.5349C3.98806 15.4988 3.56469 15.3679 3.28256 15.258C2.90919 15.1124 2.6425 14.9383 2.3625 14.6571C2.0825 14.3759 1.90919 14.1088 1.76387 13.7338C1.65437 13.451 1.52387 13.0258 1.48837 12.2426C1.45 11.3958 1.44238 11.1413 1.44238 8.99612C1.44238 6.85085 1.45 6.5978 1.48837 5.75091C1.524 4.96766 1.65437 4.54258 1.76387 4.2594C1.90887 3.88447 2.0825 3.61674 2.3625 3.33557C2.6425 3.0544 2.90919 2.88031 3.28256 2.73439C3.56456 2.62393 3.98806 2.49339 4.76806 2.45736C5.50606 2.42391 5.79206 2.41387 7.28306 2.41218V2.41419C7.42237 2.414 7.57225 2.41406 7.73394 2.41412ZM11.3111 4.71178C11.3111 4.17939 11.7411 3.7481 12.2711 3.7481V3.74778C12.8011 3.74778 13.2311 4.17957 13.2311 4.71178C13.2311 5.24399 12.8011 5.67578 12.2711 5.67578C11.7411 5.67578 11.3111 5.24399 11.3111 4.71178ZM8.00056 4.87446C5.73181 4.87452 3.89237 6.72168 3.89237 8.99995C3.89237 11.2783 5.73187 13.1246 8.00075 13.1246C10.2696 13.1246 12.1084 11.2783 12.1084 8.99995C12.1084 6.72162 10.2694 4.87446 8.00056 4.87446ZM10.6674 8.99995C10.6674 7.52094 9.47344 6.32215 8.00075 6.32215C6.52787 6.32215 5.33406 7.52094 5.33406 8.99995C5.33406 10.4788 6.52787 11.6778 8.00075 11.6778C9.47344 11.6778 10.6674 10.4788 10.6674 8.99995Z" fill="white"/>
</svg>
