<svg width="1600" height="456" viewBox="0 0 1600 456" fill="none" xmlns="http://www.w3.org/2000/svg">
<path d="M0 18C214.5 18 393.5 314.5 604 314.5C814.5 314.5 826.5 220.5 1038.5 220.5C1250.5 220.5 1420 358 1654 358C1754 358 1783 347 1907 341.5C2102.65 332.822 2249 230 2435 341.5C2621.19 453.114 2790 485 2910.5 425.5C3042.08 360.529 3198.89 203.243 3443 217C3824.5 238.5 3768.97 74.7411 4016 149.5C4396 264.5 4634.5 18 4800 18" stroke="#FF3F52" stroke-width="0.7"/>
<path opacity="0.4" d="M0 1C214.5 1 383.5 302.5 594 302.5C804.5 302.5 816.5 208.5 1028.5 208.5C1240.5 208.5 1410 346 1644 346C1744 346 1776.5 334 1897 329.5C2092.7 322.192 2239 218 2425 329.5C2611.19 441.114 2780 473 2900.5 413.5C3032.08 348.529 3188.89 191.243 3433 205C3814.5 226.5 3758.97 62.7411 4006 137.5C4386 252.5 4634.5 9.5 4800 9.5" stroke="#FF3F52" stroke-width="0.7"/>
<path opacity="0.2" d="M0 9.5C214.5 9.5 360.5 310.5 571 310.5C781.5 310.5 793.5 216.5 1005.5 216.5C1217.5 216.5 1387 354 1621 354C1721 354 1754 342.5 1874 337.5C2069.67 329.347 2216 226 2402 337.5C2588.19 449.114 2757 481 2877.5 421.5C3009.08 356.529 3165.89 199.243 3410 213C3791.5 234.5 3735.97 70.7411 3983 145.5C4363 260.5 4634.5 24 4800 24" stroke="#FF3F52" stroke-width="0.7"/>
</svg>
