<svg width="65" height="32" viewBox="0 0 65 32" fill="none" xmlns="http://www.w3.org/2000/svg">
<g clip-path="url(#clip0)">
<path d="M6.8 4.04971H7.9V11.7497H11.6V12.6497H6.8V4.04971ZM17.3 4.04971V9.14971C17.3 11.0497 18.2 11.9497 19.3 11.9497C20.6 11.9497 21.4 11.0497 21.4 9.14971V4.04971H22.5V9.04971C22.5 11.7497 21.1 12.8497 19.2 12.8497C17.4 12.8497 16.1 11.8497 16.1 9.14971V4.04971H17.3ZM34.4 12.4497C34 12.6497 33.2 12.8497 32.1 12.8497C29.7 12.8497 27.8 11.3497 27.8 8.44971C27.8 5.74971 29.6 3.94971 32.3 3.94971C33.4 3.94971 34 4.14971 34.3 4.34971L34 5.24971C33.6 5.04971 33 4.84971 32.3 4.84971C30.3 4.84971 28.9 6.14971 28.9 8.44971C28.9 10.5497 30.1 11.9497 32.2 11.9497C32.9 11.9497 33.6 11.8497 34 11.5497L34.4 12.4497ZM39.7 4.04971H40.8V8.24971C41 7.94971 41.3 7.54971 41.5 7.34971L44.2 4.04971H45.6L42.5 7.74971L45.9 12.7497H44.6L41.7 8.54971L40.9 9.54971V12.8497H39.8V4.04971H39.7ZM52.3 12.7497V9.04971L49.6 4.04971H50.9L52.1 6.44971C52.4 7.14971 52.7 7.64971 53 8.24971C53.2 7.64971 53.5 7.14971 53.9 6.44971L55.1 4.04971H56.4L53.5 9.04971V12.7497H52.3ZM6.6 26.7497C7.1 27.0497 7.8 27.3497 8.6 27.3497C9.8 27.3497 10.4 26.7497 10.4 25.8497C10.4 25.0497 9.9 24.5497 8.8 24.1497C7.4 23.6497 6.5 22.9497 6.5 21.7497C6.5 20.4497 7.6 19.4497 9.3 19.4497C10.2 19.4497 10.8 19.6497 11.2 19.8497L11 20.6497C10.7 20.4497 10.1 20.2497 9.4 20.2497C8.2 20.2497 7.8 20.9497 7.8 21.5497C7.8 22.3497 8.3 22.7497 9.5 23.2497C10.9 23.8497 11.7 24.5497 11.7 25.7497C11.7 27.0497 10.7 28.2497 8.7 28.2497C7.9 28.2497 7 28.0497 6.5 27.6497L6.6 26.7497ZM18.1 19.4497V28.0497H17V19.3497H18.1V19.4497ZM25.5 20.3497H22.9V19.3497H29.3V20.3497H26.7V28.0497H25.6V20.3497H25.5ZM38.6 24.0497H35.2V27.1497H39V28.0497H34.1V19.3497H38.8V20.2497H35.2V23.0497H38.6V24.0497Z" fill="#333333"/>
<path d="M48.1001 23.1498C49.4001 22.4498 49.7001 20.8498 52.0001 21.8498C54.0001 22.8498 54.6001 25.4498 57.3001 24.8498C58.3001 24.5498 58.9001 23.8498 59.6001 23.2498" stroke="#EC1C24" stroke-width="3"/>
<path d="M1 1.0498V30.9498H64V1.0498H1ZM65 0.0498047V31.9498H0V0.0498047H65ZM1 16.5498H64V15.5498H1V16.5498Z" fill="#333333"/>
</g>
<defs>
<clipPath id="clip0">
<rect width="65" height="31.9" fill="white" transform="translate(0 0.0498047)"/>
</clipPath>
</defs>
</svg>
