<svg width="20" height="10" viewBox="0 0 20 10" fill="none" xmlns="http://www.w3.org/2000/svg">
<path fill-rule="evenodd" clip-rule="evenodd" d="M19.0529 0.69395C19.1937 0.30251 19.0529 0.0178067 18.4291 0.0178067H16.3565C15.8333 0.0178067 15.5918 0.266896 15.451 0.533844C15.451 0.533844 14.3845 2.81141 12.8954 4.28824C12.4125 4.7153 12.1911 4.85765 11.9296 4.85765C11.7887 4.85765 11.6076 4.7153 11.6076 4.32386V0.676142C11.6076 0.213527 11.4466 0 11.0039 0H7.74408C7.42212 0 7.22092 0.213527 7.22092 0.427054C7.22092 0.871915 7.96542 0.978653 8.04591 2.2242V4.92882C8.04591 5.51604 7.9252 5.62277 7.66359 5.62277C6.95931 5.62277 5.24891 3.3274 4.22267 0.711757C4.02141 0.19572 3.82021 0 3.29705 0H1.20428C0.600617 0 0.5 0.249141 0.5 0.516036C0.5 0.996459 1.20428 3.41638 3.77994 6.61923C5.49039 8.80782 7.9252 9.98219 10.1185 9.98219C11.4466 9.98219 11.6076 9.7153 11.6076 9.27049V7.61569C11.6076 7.08185 11.7283 6.99292 12.1509 6.99292C12.4527 6.99292 12.996 7.13522 14.2235 8.18505C15.632 9.43059 15.8735 10 16.6583 10H18.7309C19.3346 10 19.6163 9.73311 19.4553 9.21707C19.2742 8.70108 18.5901 7.95376 17.7047 7.06404C17.2217 6.56587 16.4973 6.01427 16.276 5.74732C15.9741 5.39149 16.0546 5.24914 16.276 4.92882C16.2559 4.92882 18.7913 1.76159 19.0529 0.69395Z" fill="white"/>
</svg>
