<svg width="29" height="29" viewBox="0 0 29 29" fill="none" xmlns="http://www.w3.org/2000/svg">
<path d="M12.4523 19.7887C13.5042 19.7887 14.357 20.6195 14.357 21.6443C14.357 22.6692 13.5042 23.5 12.4523 23.5C11.4003 23.5 10.5475 22.6692 10.5475 21.6443C10.5475 20.6195 11.4003 19.7887 12.4523 19.7887ZM20.0712 19.7887C21.1232 19.7887 21.976 20.6195 21.976 21.6443C21.976 22.6692 21.1232 23.5 20.0712 23.5C19.0193 23.5 18.1665 22.6692 18.1665 21.6443C18.1665 20.6195 19.0193 19.7887 20.0712 19.7887ZM12.4523 20.9021C12.0315 20.9021 11.6904 21.2344 11.6904 21.6443C11.6904 22.0543 12.0315 22.3866 12.4523 22.3866C12.8731 22.3866 13.2142 22.0543 13.2142 21.6443C13.2142 21.2344 12.8731 20.9021 12.4523 20.9021ZM20.0712 20.9021C19.6505 20.9021 19.3094 21.2344 19.3094 21.6443C19.3094 22.0543 19.6505 22.3866 20.0712 22.3866C20.492 22.3866 20.8331 22.0543 20.8331 21.6443C20.8331 21.2344 20.492 20.9021 20.0712 20.9021ZM4.07142 5.5H6.73806C6.96835 5.5 7.17422 5.63438 7.26342 5.83768L7.28189 5.88579L10.9636 17.0052H21.9404L24.1443 10.3247H12.0713C11.7557 10.3247 11.4999 10.0755 11.4999 9.76804C11.4999 9.47867 11.7265 9.24086 12.0163 9.21389L12.0713 9.21134H24.9282C25.2988 9.21134 25.5666 9.54775 25.4854 9.8915L25.4722 9.93839L22.901 17.7322C22.8304 17.946 22.6358 18.0959 22.4097 18.1162L22.3569 18.1186H10.5475C10.3173 18.1186 10.1114 17.9842 10.0222 17.7809L10.0037 17.7328L6.32197 6.6134H4.07142C3.75583 6.6134 3.5 6.36416 3.5 6.0567C3.5 5.76733 3.72662 5.52952 4.01639 5.50255L4.07142 5.5H6.73806H4.07142Z" fill="white"/>
</svg>
